ffmpeg started on 2016-12-06 at 11:04:43
Report written to "Output/x264/results/ffmpeg/sintelfast12000k.log"
Command line:
Tools/ffmpeg/ffmpeg -benchmark -y -i Input/y4m/sintel.y4m -c:v libx264 -preset fast -b:v 12000k -an Output/x264/encoded/sintelfast12000k.mkv
ffmpeg version N-82227-gdb23fde Copyright (c) 2000-2016 the FFmpeg developers
  built with gcc 5.4.0 (Ubuntu 5.4.0-6ubuntu1~16.04.2) 20160609
  configuration: --prefix=/home/jaroslav/ffmpeg_build --pkg-config-flags=--static --extra-cflags=-I/home/jaroslav/ffmpeg_build/include --extra-ldflags=-L/home/jaroslav/ffmpeg_build/lib --bindir=/home/jaroslav/bin --enable-gpl --enable-libass --enable-libfdk-aac --enable-libfreetype --enable-libmp3lame --enable-libopus --enable-libtheora --enable-libvorbis --enable-libvpx --enable-libx264 --enable-libx265 --enable-nvenc --enable-libmfx --enable-libxvid --enable-libgsm --enable-libopencore-amrnb --enable-version3 --enable-nonfree
  libavutil      55. 35.100 / 55. 35.100
  libavcodec     57. 66.101 / 57. 66.101
  libavformat    57. 57.100 / 57. 57.100
  libavdevice    57.  2.100 / 57.  2.100
  libavfilter     6. 66.100 /  6. 66.100
  libswscale      4.  3.100 /  4.  3.100
  libswresample   2.  4.100 /  2.  4.100
  libpostproc    54.  2.100 / 54.  2.100
Input #0, yuv4mpegpipe, from 'Input/y4m/sintel.y4m':
  Duration: 00:00:20.83, start: 0.000000, bitrate: 2057307 kb/s
    Stream #0:0: Video: rawvideo (I420 / 0x30323449), yuv420p(progressive), 4096x1744, SAR 1:1 DAR 256:109, 24 fps, 24 tbr, 24 tbn, 24 tbc
[libx264 @ 0x2bea1c0] using SAR=1/1
[libx264 @ 0x2bea1c0] using cpu capabilities: MMX2 SSE2Fast SSSE3 SSE4.2 AVX FMA3 AVX2 LZCNT BMI2
[libx264 @ 0x2bea1c0] profile High, level 5.1
[libx264 @ 0x2bea1c0] 264 - core 148 - H.264/MPEG-4 AVC codec - Copyleft 2003-2016 - http://www.videolan.org/x264.html - options: cabac=1 ref=2 deblock=1:0:0 analyse=0x3:0x113 me=hex subme=6 psy=1 psy_rd=1.00:0.00 mixed_ref=1 me_range=16 chroma_me=1 trellis=1 8x8dct=1 cqm=0 deadzone=21,11 fast_pskip=1 chroma_qp_offset=-2 threads=6 lookahead_threads=1 sliced_threads=0 nr=0 decimate=1 interlaced=0 bluray_compat=0 constrained_intra=0 bframes=3 b_pyramid=2 b_adapt=1 b_bias=0 direct=1 weightb=1 open_gop=0 weightp=1 keyint=250 keyint_min=24 scenecut=40 intra_refresh=0 rc_lookahead=30 rc=abr mbtree=1 bitrate=12000 ratetol=1.0 qcomp=0.60 qpmin=0 qpmax=69 qpstep=4 ip_ratio=1.40 aq=1:1.00
Output #0, matroska, to 'Output/x264/encoded/sintelfast12000k.mkv':
  Metadata:
    encoder         : Lavf57.57.100
    Stream #0:0: Video: h264 (libx264) (H264 / 0x34363248), yuv420p, 4096x1744 [SAR 1:1 DAR 256:109], q=-1--1, 12000 kb/s, 24 fps, 1k tbn, 24 tbc
    Metadata:
      encoder         : Lavc57.66.101 libx264
    Side data:
      cpb: bitrate max/min/avg: 0/0/12000000 buffer size: 0 vbv_delay: -1
Stream mapping:
  Stream #0:0 -> #0:0 (rawvideo (native) -> h264 (libx264))
Press [q] to stop, [?] for help
frame=    9 fps=0.0 q=0.0 size=       0kB time=00:00:00.00 bitrate=N/A speed=   0x    frame=   18 fps= 17 q=0.0 size=       0kB time=00:00:00.00 bitrate=N/A speed=   0x    frame=   26 fps= 16 q=0.0 size=       0kB time=00:00:00.00 bitrate=N/A speed=   0x    frame=   35 fps= 16 q=0.0 size=       0kB time=00:00:00.00 bitrate=N/A speed=   0x    frame=   37 fps=9.5 q=0.0 size=       0kB time=00:00:00.00 bitrate=N/A speed=   0x    frame=   42 fps=9.5 q=23.0 size=       1kB time=-00:00:00.04 bitrate=N/A speed=N/A    frame=   44 fps=5.4 q=32.0 size=       1kB time=00:00:00.04 bitrate= 136.6kbits/s speed=0.00531x    frame=   45 fps=4.8 q=27.0 size=       1kB time=00:00:00.08 bitrate=  69.9kbits/s speed=0.00897x    frame=   50 fps=5.0 q=41.0 size=       1kB time=00:00:00.29 bitrate=  20.0kbits/s speed=0.0294x    frame=   57 fps=5.4 q=41.0 size=       1kB time=00:00:00.58 bitrate=  10.1kbits/s speed=0.055x    frame=   61 fps=5.5 q=41.0 size=       1kB time=00:00:00.75 bitrate=   7.8kbits/s speed=0.0674x    frame=   66 fps=5.6 q=40.0 size=       1kB time=00:00:00.95 bitrate=   6.1kbits/s speed=0.0819x    frame=   73 fps=5.9 q=39.0 size=       1kB time=00:00:01.25 bitrate=   4.7kbits/s speed=0.101x    frame=   79 fps=6.1 q=39.0 size=       1kB time=00:00:01.50 bitrate=   3.9kbits/s speed=0.117x    frame=   85 fps=6.3 q=38.0 size=       1kB time=00:00:01.75 bitrate=   3.4kbits/s speed=0.13x    frame=   90 fps=6.4 q=37.0 size=       1kB time=00:00:01.95 bitrate=   3.0kbits/s speed=0.14x    frame=   95 fps=6.5 q=37.0 size=       1kB time=00:00:02.16 bitrate=   2.7kbits/s speed=0.149x    frame=  100 fps=6.6 q=37.0 size=       1kB time=00:00:02.37 bitrate=   2.5kbits/s speed=0.158x    frame=  106 fps=6.8 q=37.0 size=       1kB time=00:00:02.62 bitrate=   2.2kbits/s speed=0.167x    frame=  111 fps=6.8 q=36.0 size=    5129kB time=00:00:02.83 bitrate=14827.4kbits/s speed=0.173x    frame=  117 fps=6.9 q=36.0 size=    5129kB time=00:00:03.08 bitrate=13625.4kbits/s speed=0.183x    frame=  121 fps=6.9 q=36.0 size=    5129kB time=00:00:03.25 bitrate=12925.5kbits/s speed=0.186x    frame=  126 fps=7.0 q=36.0 size=    5129kB time=00:00:03.45 bitrate=12148.2kbits/s speed=0.192x    frame=  131 fps=7.0 q=35.0 size=    5129kB time=00:00:03.66 bitrate=11456.0kbits/s speed=0.197x    frame=  137 fps=7.1 q=35.0 size=    6343kB time=00:00:03.91 bitrate=13263.0kbits/s speed=0.204x    frame=  143 fps=7.2 q=35.0 size=    6343kB time=00:00:04.16 bitrate=12467.4kbits/s speed=0.21x    frame=  148 fps=7.2 q=35.0 size=    6343kB time=00:00:04.37 bitrate=11874.8kbits/s speed=0.214x    frame=  155 fps=7.3 q=35.0 size=    6343kB time=00:00:04.66 bitrate=11132.0kbits/s speed=0.221x    frame=  161 fps=7.5 q=34.0 size=    6343kB time=00:00:04.91 bitrate=10566.1kbits/s speed=0.228x    frame=  165 fps=7.5 q=34.0 size=    6343kB time=00:00:05.08 bitrate=10221.1kbits/s speed=0.23x    frame=  170 fps=7.5 q=34.0 size=    6343kB time=00:00:05.29 bitrate=9817.6kbits/s speed=0.234x    frame=  175 fps=7.5 q=34.0 size=    6343kB time=00:00:05.50 bitrate=9446.3kbits/s speed=0.236x    frame=  181 fps=7.6 q=34.0 size=    6343kB time=00:00:05.75 bitrate=9035.7kbits/s speed=0.241x    frame=  187 fps=7.7 q=34.0 size=    6343kB time=00:00:06.00 bitrate=8659.3kbits/s speed=0.246x    frame=  192 fps=7.7 q=32.0 size=    6343kB time=00:00:06.20 bitrate=8369.2kbits/s speed=0.248x    frame=  200 fps=7.8 q=34.0 size=    9486kB time=00:00:06.54 bitrate=11876.9kbits/s speed=0.256x    frame=  204 fps=7.8 q=34.0 size=    9486kB time=00:00:06.70 bitrate=11583.1kbits/s speed=0.257x    frame=  209 fps=7.9 q=34.0 size=    9486kB time=00:00:06.91 bitrate=11233.1kbits/s speed=0.26x    frame=  215 fps=7.9 q=33.0 size=    9486kB time=00:00:07.16 bitrate=10841.3kbits/s speed=0.263x    frame=  222 fps=7.9 q=33.0 size=    9486kB time=00:00:07.45 bitrate=10418.4kbits/s speed=0.265x    frame=  230 fps=8.0 q=33.0 size=   10790kB time=00:00:07.79 bitrate=11342.9kbits/s speed=0.271x    frame=  237 fps=8.0 q=33.0 size=   10790kB time=00:00:08.08 bitrate=10934.6kbits/s speed=0.274x    frame=  241 fps=8.0 q=33.0 size=   10790kB time=00:00:08.25 bitrate=10713.3kbits/s speed=0.275x    frame=  247 fps=8.1 q=33.0 size=   10790kB time=00:00:08.50 bitrate=10398.2kbits/s speed=0.278x    frame=  252 fps=8.1 q=33.0 size=   10790kB time=00:00:08.70 bitrate=10149.9kbits/s speed=0.28x    frame=  257 fps=8.1 q=33.0 size=   10790kB time=00:00:08.91 bitrate=9912.0kbits/s speed=0.282x    frame=  262 fps=8.1 q=33.0 size=   10790kB time=00:00:09.12 bitrate=9686.1kbits/s speed=0.284x    frame=  268 fps=8.2 q=33.0 size=   10790kB time=00:00:09.37 bitrate=9427.8kbits/s speed=0.287x    frame=  274 fps=8.2 q=33.0 size=   10790kB time=00:00:09.62 bitrate=9183.0kbits/s speed=0.288x    frame=  281 fps=8.2 q=32.0 size=   10790kB time=00:00:09.91 bitrate=8912.6kbits/s speed=0.29x    frame=  289 fps=8.3 q=32.0 size=   10790kB time=00:00:10.25 bitrate=8623.1kbits/s speed=0.295x    frame=  294 fps=8.3 q=32.0 size=   10790kB time=00:00:10.45 bitrate=8451.6kbits/s speed=0.296x    frame=  300 fps=8.4 q=32.0 size=   10790kB time=00:00:10.70 bitrate=8254.3kbits/s speed=0.298x    frame=  306 fps=8.4 q=32.0 size=   14957kB time=00:00:10.95 bitrate=11180.5kbits/s speed=0.301x    frame=  312 fps=8.4 q=32.0 size=   14957kB time=00:00:11.20 bitrate=10931.2kbits/s speed=0.302x    frame=  320 fps=8.5 q=32.0 size=   14957kB time=00:00:11.54 bitrate=10614.9kbits/s speed=0.305x    frame=  328 fps=8.5 q=32.0 size=   14957kB time=00:00:11.87 bitrate=10317.2kbits/s speed=0.308x    frame=  336 fps=8.6 q=31.0 size=   14957kB time=00:00:12.20 bitrate=10035.8kbits/s speed=0.312x    frame=  344 fps=8.7 q=31.0 size=   14957kB time=00:00:12.54 bitrate=9768.6kbits/s speed=0.316x    frame=  352 fps=8.7 q=31.0 size=   14957kB time=00:00:12.87 bitrate=9515.9kbits/s speed=0.32x    frame=  360 fps=8.8 q=30.0 size=   14957kB time=00:00:13.20 bitrate=9276.1kbits/s speed=0.324x    frame=  368 fps=8.9 q=30.0 size=   14957kB time=00:00:13.54 bitrate=9047.3kbits/s speed=0.327x    frame=  376 fps=8.9 q=30.0 size=   14957kB time=00:00:13.87 bitrate=8830.2kbits/s speed=0.33x    frame=  384 fps=9.0 q=30.0 size=   14957kB time=00:00:14.20 bitrate=8623.2kbits/s speed=0.333x    frame=  392 fps=9.1 q=29.0 size=   14957kB time=00:00:14.54 bitrate=8425.2kbits/s speed=0.336x    frame=  400 fps=9.1 q=29.0 size=   14957kB time=00:00:14.87 bitrate=8236.6kbits/s speed=0.339x    frame=  406 fps=9.1 q=29.0 size=   18755kB time=00:00:15.12 bitrate=10157.5kbits/s speed=0.341x    frame=  410 fps=9.1 q=29.0 size=   18755kB time=00:00:15.29 bitrate=10046.5kbits/s speed=0.34x    frame=  416 fps=9.1 q=29.0 size=   18755kB time=00:00:15.54 bitrate=9884.9kbits/s speed=0.341x    frame=  422 fps=9.1 q=29.0 size=   18755kB time=00:00:15.79 bitrate=9728.5kbits/s speed=0.342x    frame=  428 fps=9.2 q=29.0 size=   18755kB time=00:00:16.04 bitrate=9576.9kbits/s speed=0.343x    frame=  433 fps=9.1 q=29.0 size=   18755kB time=00:00:16.25 bitrate=9454.3kbits/s speed=0.343x    frame=  440 fps=9.2 q=29.0 size=   18755kB time=00:00:16.54 bitrate=9287.4kbits/s speed=0.345x    frame=  445 fps=9.2 q=29.0 size=   18755kB time=00:00:16.75 bitrate=9172.1kbits/s speed=0.345x    frame=  449 fps=9.1 q=29.0 size=   18755kB time=00:00:16.91 bitrate=9081.6kbits/s speed=0.343x    frame=  456 fps=9.1 q=29.0 size=   18755kB time=00:00:17.20 bitrate=8928.0kbits/s speed=0.345x    frame=  464 fps=9.1 q=29.0 size=   22300kB time=00:00:17.54 bitrate=10413.1kbits/s speed=0.346x    frame=  471 fps=9.2 q=29.0 size=   22300kB time=00:00:17.83 bitrate=10243.2kbits/s speed=0.348x    frame=  477 fps=9.2 q=29.0 size=   22300kB time=00:00:18.08 bitrate=10101.6kbits/s speed=0.348x    frame=  483 fps=9.2 q=29.0 size=   22300kB time=00:00:18.33 bitrate=9963.9kbits/s speed=0.349x    frame=  485 fps=9.2 q=29.0 size=   22300kB time=00:00:18.41 bitrate=9918.4kbits/s speed=0.348x    frame=  492 fps=9.2 q=29.0 size=   22300kB time=00:00:18.70 bitrate=9764.2kbits/s speed=0.349x    frame=  499 fps=9.2 q=29.0 size=   22300kB time=00:00:19.00 bitrate=9614.1kbits/s speed=0.351x    frame=  500 fps=8.8 q=-1.0 Lsize=   27317kB time=00:00:20.70 bitrate=10806.2kbits/s speed=0.363x    
video:27313kB audio:0kB subtitle:0kB other streams:0kB global headers:0kB muxing overhead: 0.017956%
bench: utime=186.128s
bench: maxrss=1327168kB
[libx264 @ 0x2bea1c0] frame I:8     Avg QP:23.54  size:181690
[libx264 @ 0x2bea1c0] frame P:269   Avg QP:28.82  size: 64131
[libx264 @ 0x2bea1c0] frame B:223   Avg QP:26.32  size: 41537
[libx264 @ 0x2bea1c0] consecutive B-frames: 37.0%  8.4%  6.6% 48.0%
[libx264 @ 0x2bea1c0] mb I  I16..4: 21.8% 72.2%  6.1%
[libx264 @ 0x2bea1c0] mb P  I16..4: 18.5% 23.3%  0.5%  P16..4: 26.5%  3.6%  1.3%  0.0%  0.0%    skip:26.3%
[libx264 @ 0x2bea1c0] mb B  I16..4:  6.8%  7.3%  0.7%  B16..8: 19.6%  3.1%  0.1%  direct:10.4%  skip:51.9%  L0:43.0% L1:50.6% BI: 6.4%
[libx264 @ 0x2bea1c0] final ratefactor: 25.78
[libx264 @ 0x2bea1c0] 8x8 transform intra:54.8% inter:85.6%
[libx264 @ 0x2bea1c0] coded y,uvDC,uvAC intra: 20.5% 28.6% 2.9% inter: 9.2% 10.5% 0.1%
[libx264 @ 0x2bea1c0] i16 v,h,dc,p: 31% 29% 10% 30%
[libx264 @ 0x2bea1c0] i8 v,h,dc,ddl,ddr,vr,hd,vl,hu: 23% 19% 33%  4%  4%  4%  5%  3%  4%
[libx264 @ 0x2bea1c0] i4 v,h,dc,ddl,ddr,vr,hd,vl,hu: 18% 23% 10%  7% 10%  8% 11%  5%  8%
[libx264 @ 0x2bea1c0] i8c dc,h,v,p: 69% 15% 14%  2%
[libx264 @ 0x2bea1c0] Weighted P-Frames: Y:0.7% UV:0.0%
[libx264 @ 0x2bea1c0] ref P L0: 85.6% 14.4%
[libx264 @ 0x2bea1c0] ref B L0: 87.9% 12.1%
[libx264 @ 0x2bea1c0] ref B L1: 97.1%  2.9%
[libx264 @ 0x2bea1c0] kb/s:10739.47
